<?xml version="1.0" encoding="UTF-8" standalone="no"?><!DOCTYPE svg PUBLIC "-//W3C//DTD SVG 1.1//EN" "http://www.w3.org/Graphics/SVG/1.1/DTD/svg11.dtd"><svg width="100%" height="100%" viewBox="0 0 758 1195" version="1.1" xmlns="http://www.w3.org/2000/svg" xmlns:xlink="http://www.w3.org/1999/xlink" xml:space="preserve" xmlns:serif="http://www.serif.com/" style="fill-rule:evenodd;clip-rule:evenodd;stroke-linejoin:round;stroke-miterlimit:2;"><g id="shield"><path id="outline" d="M449.136,1193.91c0.056,-0.879 -1.682,-5.062 -3.861,-9.301c-3.683,-7.163 -7.547,-19.053 -13.327,-41.009c-2.202,-8.362 -8.114,-25.436 -18.232,-52.653c-3.637,-9.783 -4.347,-13.473 -4.393,-22.822c-0.05,-10.278 -1.059,-13.836 -3.55,-12.521c-0.535,0.283 -0.393,-6.361 0.316,-14.764c1.247,-14.766 1.199,-15.326 -1.429,-16.698c-1.972,-1.03 -2.637,-2.449 -2.42,-5.169c0.427,-5.349 4.101,-16.588 6.972,-21.324c2.729,-4.501 1.793,-6.197 -3.642,-6.602c-2.419,-0.178 -2.713,-0.659 -1.821,-2.958c1.177,-3.031 3.323,-4.637 4.792,-3.585c0.523,0.375 0.996,0.035 1.049,-0.755c0.054,-0.789 -1.003,-1.804 -2.349,-2.256c-3.075,-1.031 -2.962,-2.697 0.489,-7.211c3.295,-4.31 3.823,-8.954 1.264,-11.105c-1.584,-1.333 -1.611,-2.376 -0.17,-6.573c0.942,-2.744 2.597,-5.627 3.677,-6.407c1.08,-0.779 2.039,-2.523 2.131,-3.875c0.483,-7.116 5.212,-15.913 11.405,-21.217c6.448,-5.522 9.967,-12.62 6.884,-13.885c-1.74,-0.715 3.265,-9.455 5.343,-9.329c1.243,0.07 3.456,-2.806 12.71,-16.538c2.478,-3.677 4.463,-5.951 4.41,-5.054c-0.053,0.897 0.488,1.323 1.202,0.946c0.714,-0.377 1.257,-0.092 1.208,0.634c-0.049,0.725 0.83,1.381 1.953,1.458c1.124,0.075 2.721,1.169 3.549,2.43c1.384,2.104 1.536,2.038 1.86,-0.812c0.325,-2.867 0.484,-2.76 2.073,1.392c2.246,5.87 0.672,46.984 -1.959,51.19c-2.654,4.241 -5.095,15.669 -5.569,26.071c-0.256,5.623 -1.001,9.846 -1.813,10.274c-0.759,0.401 -1.623,4.198 -1.921,8.439c-0.296,4.24 -1.56,11.019 -2.805,15.064c-2.66,8.641 -12.973,46.63 -14.843,54.676c-0.394,1.694 -1.195,4.033 -1.78,5.198c-0.81,1.612 -0.463,2.158 1.457,2.288c1.386,0.094 2.678,0.777 2.87,1.518c0.531,2.045 4.753,0.274 4.917,-2.062c0.198,-2.794 4.29,-8.304 10.187,-13.709c2.702,-2.477 6.405,-7.012 8.229,-10.078c1.825,-3.066 6.657,-8.241 10.739,-11.5c7.232,-5.775 9.179,-8.59 6.087,-8.8c-0.838,-0.057 1.339,-2.302 4.837,-4.99c4.638,-3.563 6.479,-5.866 6.8,-8.506c0.274,-2.261 2.456,-5.638 5.808,-8.991c6.566,-6.567 14.16,-15.046 14.216,-15.872c0.023,-0.335 -1.167,-0.871 -2.644,-1.191c-2.523,-0.547 -2.403,-0.826 1.993,-4.644c2.572,-2.235 7.746,-6.489 11.498,-9.455c4.843,-3.826 6.886,-6.321 7.04,-8.594c0.119,-1.761 -0.371,-3.243 -1.09,-3.291c-1.993,-0.136 0.214,-2.897 7.846,-9.816c5.072,-4.597 7.059,-7.349 7.574,-10.488c0.635,-3.87 1.455,-4.572 9.07,-7.767c8.9,-3.734 26.787,-17.126 28.099,-21.037c0.592,-1.768 -0.013,-2.574 -2.476,-3.298c-7.339,-2.156 -7.736,-2.415 -6.194,-4.036c1.076,-1.131 1.088,-1.709 0.042,-2.138c-0.907,-0.372 0.574,-3.421 4.027,-8.295c6.054,-8.544 6.196,-8.766 13.767,-21.533c2.943,-4.962 7.694,-12.112 10.558,-15.889c2.864,-3.777 4.66,-6.578 3.991,-6.225c-1.751,0.924 -1.303,-1.021 0.786,-3.417c0.983,-1.127 2.07,-1.724 2.416,-1.328c0.572,0.655 4.122,-3.192 7.143,-7.74c1.06,-1.597 0.922,-1.606 -1.246,-0.085c-2.313,1.624 -2.342,1.557 -0.572,-1.29c1.026,-1.651 5.082,-7.288 9.013,-12.527c14.19,-18.912 16.927,-22.924 28.146,-41.261c13.976,-22.842 24.11,-37.627 29.505,-43.046c6.658,-6.688 20.19,-27.46 23.029,-35.352c1.45,-4.03 3.907,-10.397 5.462,-14.147c3.363,-8.117 3.597,-9.865 0.905,-6.766c-1.868,2.15 -1.973,2.006 -1.681,-2.304c0.258,-3.806 -0.128,-4.628 -2.243,-4.771c-1.762,-0.12 -3.239,1.196 -4.761,4.241c-4.911,9.824 -28.612,32.028 -38.871,36.413c-9.432,4.033 -10.272,5.877 22.615,-49.624c14.858,-25.073 28.581,-44.39 38.424,-54.088c4.468,-4.402 8.101,-8.795 8.072,-9.762c-0.029,-0.967 0.362,-1.462 0.868,-1.1c0.506,0.363 4.195,-3.475 8.199,-8.529c4.003,-5.053 6.272,-8.483 5.042,-7.622c-1.326,0.928 -2.201,1.026 -2.147,0.241c0.049,-0.729 0.598,-1.593 1.22,-1.921c0.621,-0.329 1.56,-2.128 2.086,-4c0.525,-1.871 3.148,-6.259 5.828,-9.75c2.68,-3.491 4.888,-6.579 4.907,-6.862c0.02,-0.283 -1,-0.584 -2.264,-0.67c-1.265,-0.086 -4.678,2.076 -7.583,4.804c-2.906,2.727 -7.633,6.806 -10.505,9.064c-2.872,2.258 -7.522,6.447 -10.333,9.31c-2.811,2.862 -4.721,4.527 -4.244,3.699c0.477,-0.828 0.504,-1.53 0.059,-1.56c-1.292,-0.088 -5.85,5.08 -6.013,6.818c-0.082,0.872 -3.613,4.911 -7.846,8.975c-4.233,4.064 -10.562,10.518 -14.064,14.343c-3.503,3.824 -10.872,11.153 -16.376,16.285l-10.007,9.332l0.506,-8.317c0.752,-12.352 3.55,-20.351 8.37,-23.927c2.219,-1.646 3.029,-2.696 1.8,-2.333c-1.569,0.464 -2.217,0.021 -2.177,-1.487c0.049,-1.79 -0.147,-1.745 -1.181,0.272c-0.936,1.825 -1.228,1.926 -1.191,0.41c0.026,-1.105 2.36,-5.732 5.187,-10.284c10.829,-17.438 17.045,-29.035 19.667,-36.696c1.497,-4.372 4.082,-11.235 5.745,-15.252c1.663,-4.016 6.305,-15.245 10.316,-24.952c8.494,-20.557 17.456,-46.171 16.526,-47.236c-0.354,-0.406 -1.246,-0.42 -1.98,-0.032c-1.641,0.866 -15.051,20.384 -20.039,29.165c-2.006,3.532 -6.404,9.991 -9.773,14.353c-3.368,4.362 -11.103,14.913 -17.189,23.447c-13.873,19.455 -19.245,25.898 -20.716,24.844c-0.635,-0.454 -1.764,0.497 -2.508,2.115c-1.275,2.773 -5.113,5.022 -6.282,3.682c-0.294,-0.336 1.208,-4.893 3.339,-10.126c7.099,-17.436 10.223,-29.171 9.156,-34.39c-1.36,-6.655 3.324,-36.762 8.316,-53.451c1.278,-4.272 3.275,-13.146 4.437,-19.72c1.163,-6.574 3.295,-16.378 4.738,-21.786c1.443,-5.407 3.98,-22.41 5.638,-37.782c1.659,-15.373 3.171,-29.066 3.361,-30.429c1.615,-11.562 0.199,-47.078 -2.007,-50.37c-0.554,-0.825 -0.888,-1.974 -0.743,-2.553c0.145,-0.579 0.31,-3.02 0.368,-5.425c0.104,-4.361 0.099,-4.365 -1.782,-1.453c-1.037,1.606 -1.809,3.806 -1.716,4.889c0.094,1.083 -0.398,2.285 -1.092,2.67c-0.693,0.385 -2.099,5.616 -3.122,11.624c-2.237,13.13 -8.507,33.658 -15.12,49.501c-5.881,14.089 -17.678,35.087 -20.138,35.844c-0.984,0.303 -3.646,2.892 -5.913,5.752c-2.268,2.86 -4.675,5.163 -5.348,5.118c-0.673,-0.046 -3.077,1.76 -5.343,4.013c-2.266,2.252 -4.684,3.692 -5.374,3.198c-0.69,-0.494 -2.104,0.113 -3.144,1.35c-1.707,2.031 -1.801,1.79 -0.972,-2.494c0.999,-5.16 -0.512,-10.862 -2.92,-11.026c-0.832,-0.056 -3.327,-0.595 -5.544,-1.197c-2.788,-0.757 -3.798,-0.654 -3.276,0.334c0.981,1.859 -9.656,1.875 -15.435,0.023c-2.666,-0.854 -4.427,-0.91 -4.738,-0.153c-0.663,1.615 -7.185,-0.427 -12.926,-4.046c-2.749,-1.734 -3.989,-3.189 -3.111,-3.652c1.009,-0.533 0.834,-1.561 -0.569,-3.339c-1.657,-2.1 -1.68,-2.409 -0.129,-1.69c1.088,0.504 2.247,0.129 2.715,-0.881c0.643,-1.387 0.095,-1.62 -2.579,-1.096c-2.149,0.421 -3.505,1.563 -3.692,3.111c-0.483,4.001 -3.388,7.735 -5.321,6.839c-1.225,-0.568 -2.546,0.791 -4.32,4.446c-1.406,2.895 -2.445,6.017 -2.309,6.938c0.135,0.92 -0.486,2.567 -1.38,3.66c-0.894,1.093 0.107,0.363 2.224,-1.621c2.117,-1.984 4.973,-5.386 6.346,-7.56c1.373,-2.173 2.838,-3.561 3.254,-3.084c0.417,0.477 0.049,1.485 -0.817,2.241c-0.865,0.756 -1.635,2.278 -1.71,3.383c-0.075,1.105 -1.927,3.506 -4.116,5.336c-2.188,1.829 -4.023,3.964 -4.076,4.744c-0.053,0.78 -1.684,2.676 -3.626,4.213l-3.53,2.794l2.289,-2.939c3.035,-3.898 3.049,-5.737 0.025,-3.352c-1.332,1.05 -2.684,1.608 -3.005,1.241c-0.321,-0.368 -3.291,2.794 -6.6,7.026c-3.574,4.57 -6.442,7.207 -7.064,6.495c-1.564,-1.792 0.202,-6.01 6.139,-14.66c2.933,-4.274 8.37,-12.352 12.081,-17.95c3.71,-5.598 8.474,-11.911 10.586,-14.028c3.696,-3.706 5.896,-10.999 2.829,-9.379c-0.971,0.513 -1.099,-0.098 -0.394,-1.89c0.749,-1.902 0.143,-4.01 -2.155,-7.487c-1.758,-2.661 -2.963,-5.814 -2.677,-7.005c0.33,-1.375 -0.592,-2.678 -2.52,-3.565c-2.136,-0.982 -3.57,-3.285 -4.821,-7.745c-0.98,-3.491 -2.153,-6.152 -2.607,-5.912c-2.219,1.172 -7.928,-21.9 -7.009,-28.325c0.224,-1.568 -0.562,-3.351 -1.826,-4.143c-1.221,-0.764 -2.824,-3.281 -3.563,-5.595c-0.74,-2.313 -2.112,-5.241 -3.049,-6.507c-0.938,-1.266 -1.531,-4.114 -1.317,-6.329c0.25,-2.598 -2.035,-9.971 -6.441,-20.775c-3.756,-9.211 -7.471,-19.887 -8.255,-23.726c-0.785,-3.838 -2.38,-10.422 -3.545,-14.63c-1.165,-4.208 -3.332,-14.155 -4.815,-22.103c-2.969,-15.903 -5.69,-23.824 -8.074,-23.506c-0.855,0.114 -1.511,-0.44 -1.457,-1.232c0.053,-0.792 -1.077,-3.261 -2.513,-5.488c-4.603,-7.142 -8.885,-16.77 -10.665,-23.977c-0.952,-3.858 -1.796,-6.509 -1.875,-5.891c-0.079,0.617 -1.143,0.086 -2.366,-1.181c-2.392,-2.479 -4.765,-1.073 -3.146,1.864c0.492,0.894 0.828,4.154 0.747,7.246c-0.702,26.726 -0.891,53.95 -0.402,57.846c0.423,3.366 0.161,4.703 -0.909,4.631c-1.088,-0.075 -1.402,1.723 -1.133,6.492c0.204,3.627 0.281,12.182 0.17,19.012c-0.195,12.038 -0.606,13.745 -5.066,21.011c-0.812,1.321 -1.783,4.12 -2.16,6.219c-0.554,3.085 -0.106,4.128 2.339,5.449c2.491,1.346 2.946,2.461 2.577,6.323l-0.447,4.689l-0.908,-4.659c-0.499,-2.563 -1.734,-5.043 -2.744,-5.511c-1.554,-0.721 -1.768,0.129 -1.393,5.55c0.276,3.992 -0.287,8.456 -1.494,11.861c-1.454,4.102 -1.605,5.839 -0.606,6.983c1.423,1.63 0.987,15.025 -0.532,16.351c-0.501,0.437 -1.193,3.362 -1.539,6.5c-0.391,3.541 -0.185,5.089 0.543,4.082c1.275,-1.765 0.294,3.355 -3.11,16.23c-1.533,5.8 -2.135,6.96 -2.194,4.23c-0.138,-6.346 -2.929,11.414 -4.086,26.001c-1.259,15.874 -3.142,26.88 -4.438,25.952c-1.464,-1.048 -2.889,3.252 -1.576,4.756c0.66,0.756 1.094,2.803 0.965,4.549c-0.169,2.266 -0.51,2.668 -1.195,1.404c-0.811,-1.495 -1.084,-1.514 -1.751,-0.119c-0.562,1.173 -0.789,1.199 -0.783,0.089c0.004,-0.86 -0.758,-1.616 -1.692,-1.679c-2.088,-0.142 -4.502,-8.167 -5.841,-19.418c-0.554,-4.65 -1.431,-8.231 -1.95,-7.957c-1.231,0.651 -3.519,-16.259 -3.141,-23.217c0.302,-5.556 -1.417,-9.595 -3.595,-8.445c-1.407,0.743 -17.1,-3.262 -16.967,-4.331c0.047,-0.386 0.918,-1.656 1.933,-2.822c1.768,-2.029 2.029,-1.999 6.169,0.71c2.377,1.556 4.354,2.365 4.392,1.798c0.128,-1.883 -4.167,-5.461 -6.768,-5.637c-1.409,-0.096 -4.11,-1.12 -6.003,-2.277l-3.442,-2.102l4.366,0.2c3.579,0.164 3.93,-0.023 1.948,-1.039c-1.331,-0.682 -4.485,-1.419 -7.01,-1.639c-4.585,-0.4 -7.981,-3.069 -3.704,-2.913c1.242,0.044 0.343,-0.746 -1.997,-1.76c-2.34,-1.014 -4.075,-2.491 -3.856,-3.282c0.443,-1.602 -4.148,-4.939 -5.35,-3.889c-0.421,0.367 0.22,2.004 1.424,3.639l2.189,2.971l-2.713,-2.637c-2.118,-2.059 -2.955,-2.298 -3.818,-1.092c-0.848,1.184 -1.267,1.021 -1.796,-0.697c-0.389,-1.264 0,-2.606 0.892,-3.077c1.001,-0.529 0.038,-1.348 -2.622,-2.229c-3.237,-1.073 -4.209,-2.096 -4.227,-4.45c-0.015,-1.82 0.172,-2.157 0.461,-0.833c0.472,2.166 2.731,3.309 2.855,1.445c0.035,-0.514 -0.795,-3.754 -1.843,-7.2l-1.905,-6.266l-1.262,5.735c-0.694,3.154 -0.952,6.322 -0.573,7.04c0.79,1.495 -2.955,0.888 -5.398,-0.876c-0.995,-0.718 -2.026,-0.612 -2.66,0.274c-0.758,1.058 -1.205,0.895 -1.668,-0.608c-0.426,-1.385 -1.67,-1.938 -3.813,-1.698c-1.749,0.196 -3.145,-0.167 -3.102,-0.806c0.044,-0.64 -0.751,-1.22 -1.765,-1.289c-1.014,-0.068 -7.17,-2.717 -13.678,-5.885c-6.509,-3.168 -14.175,-6.525 -17.036,-7.46c-3.146,-1.029 -5.154,-2.42 -5.079,-3.521c0.145,-2.151 -1.909,-2.59 -2.732,-0.584c-0.416,1.015 -1.362,0.898 -3.488,-0.433c-2.733,-1.709 -2.761,-1.868 -0.451,-2.506c2.43,-0.672 2.432,-0.703 0.122,-2.214c-2.171,-1.419 -2.178,-1.583 -0.106,-2.224c1.23,-0.381 2.269,-1.175 2.309,-1.765c0.04,-0.591 -0.714,-0.831 -1.676,-0.535c-1.038,0.32 -1.951,-0.522 -2.245,-2.069c-0.273,-1.433 -1.169,-2.652 -1.992,-2.708c-0.852,-0.058 -1.227,0.769 -0.872,1.922c0.395,1.283 0.066,1.798 -0.9,1.407c-0.838,-0.34 -1.596,-2.008 -1.684,-3.708c-0.195,-3.752 -4.735,-7.743 -4.964,-4.364c-0.124,1.826 -0.481,1.741 -2.771,-0.657c-3.174,-3.324 -9.634,-7.275 -12.175,-7.447c-1.201,-0.081 -1.906,1.076 -2.014,3.305c-0.174,3.581 -4.55,17.512 -6.58,20.948c-2.751,4.657 -4.238,8.325 -5.143,12.68c-0.53,2.552 -1.898,5.456 -3.04,6.453c-1.142,0.997 -2.17,3.192 -2.285,4.877c-0.114,1.686 -1.167,4.986 -2.341,7.333c-1.173,2.347 -2.692,7.031 -3.375,10.409c-0.683,3.377 -1.479,5.87 -1.768,5.538c-0.29,-0.331 -0.559,-7.829 -0.598,-16.662c-0.04,-8.833 -0.187,-18.883 -0.327,-22.334c-0.17,-4.179 0.51,-7.892 2.037,-11.123l2.292,-4.85l-0.993,4.938c-0.97,4.829 -0.947,4.872 1.061,1.949c1.129,-1.644 2.14,-5.251 2.247,-8.017c0.107,-2.765 0.923,-6.192 1.813,-7.615c2.691,-4.3 2.273,-8.523 -1.184,-11.98c-6.607,-6.606 -8.493,-10.124 -10.348,-19.297c-1.046,-5.176 -2.58,-10.019 -3.408,-10.764c-0.828,-0.744 -2.002,-3.184 -2.609,-5.421c-0.881,-3.245 -0.786,-3.919 0.473,-3.336c1.159,0.538 1.069,-1.394 -0.342,-7.292c-1.056,-4.413 -2.555,-10.883 -3.333,-14.376c-0.777,-3.494 -2.158,-8.334 -3.069,-10.756c-2.033,-5.407 -4.061,-16.042 -4.965,-26.034c-0.374,-4.131 -1.194,-8.1 -1.822,-8.821c-0.629,-0.72 -0.873,-6.387 -0.543,-12.593c0.463,-8.693 0.305,-10.298 -0.687,-6.991c-1.132,3.771 -1.191,3.539 -0.488,-1.91c0.44,-3.411 0.614,-14.38 0.386,-24.374c-1.135,-49.861 -0.273,-79.02 2.468,-83.4c2.052,-3.28 2.769,-13.847 0.948,-13.971c-0.96,-0.065 -0.973,-2.233 -0.041,-7.025c1.624,-8.354 -0.219,-8.231 -3.129,0.208c-1.108,3.212 -2.91,7.368 -4.005,9.235c-2.253,3.842 -5.238,15.904 -9.954,40.216c-1.779,9.17 -5.441,25.251 -8.137,35.736c-2.697,10.484 -5.194,20.732 -5.549,22.773c-0.531,3.051 -0.843,2.423 -1.757,-3.539c-0.611,-3.986 -1.549,-7.562 -2.085,-7.946c-2.085,-1.493 -3.803,17.44 -2.929,32.298c0.962,16.375 0.547,26.024 -1.448,33.687c-1.267,4.863 -1.327,4.739 -5.32,-10.997c-2.221,-8.754 -4.772,-19.5 -5.669,-23.881c-0.896,-4.381 -1.902,-7.727 -2.235,-7.437c-1.205,1.052 1.341,33.322 4.625,58.624c3.128,24.098 3.241,26.82 1.642,39.528c-0.945,7.506 -3.083,29.322 -4.752,48.479c-1.669,19.157 -3.726,36.889 -4.571,39.406c-0.846,2.516 -1.914,11.594 -2.374,20.172c-1.239,23.097 -1.381,24.449 -3.195,30.454c-1.345,4.451 -1.34,5.733 0.028,6.633c2.249,1.481 1.831,7.257 -0.515,7.098c-2.528,-0.171 -3.808,2.052 -2.346,4.078c0.678,0.939 0.839,2.052 0.357,2.472c-0.481,0.42 -0.361,0.799 0.267,0.842c0.628,0.043 0.883,4.857 0.567,10.699c-0.526,9.703 -0.701,10.327 -2.055,7.225c-0.813,-1.868 -1.391,-4.694 -1.283,-6.279c0.107,-1.585 -0.614,-3.81 -1.604,-4.943c-1.299,-1.488 -1.494,-3.353 -0.703,-6.707c0.742,-3.141 0.67,-4.116 -0.219,-3.01c-0.724,0.899 -1.868,1.24 -2.543,0.757c-0.675,-0.483 -2.599,-0.46 -4.277,0.05c-2.22,0.677 -3.844,2.869 -5.964,8.051c-1.602,3.917 -3.271,7.379 -3.709,7.694c-1.016,0.73 -4.011,5.572 -4.081,6.597c-0.029,0.427 0.487,0.493 1.147,0.144c2.765,-1.46 -7.627,16.691 -14.105,24.637c-1.289,1.581 -1.351,1.577 -0.559,-0.038c0.49,-0.999 -0.308,-0.631 -1.774,0.818c-1.465,1.45 -3.6,2.572 -4.743,2.494c-1.675,-0.113 -1.966,0.617 -1.496,3.761c0.472,3.154 0.038,4.232 -2.259,5.619c-1.971,1.191 -2.691,2.558 -2.348,4.463c0.601,3.335 -4.215,10.413 -5.252,7.72c-0.367,-0.953 -0.503,-0.373 -0.303,1.289c0.274,2.267 0.034,2.641 -0.963,1.498c-3.277,-3.754 -14.621,-1.102 -14.933,3.49c-0.075,1.116 0.969,3.378 2.32,5.028c2.426,2.96 2.049,6.853 -0.645,6.67c-0.747,-0.051 -0.974,-0.629 -0.504,-1.286c0.47,-0.656 -0.257,-1.268 -1.614,-1.36c-1.358,-0.093 -4.075,-2.008 -6.038,-4.257c-1.963,-2.248 -3.289,-3.176 -2.946,-2.062c1.378,4.475 -2.815,0.184 -5.984,-6.123c-7.529,-14.987 -9.596,-19.582 -8.434,-18.75c0.677,0.484 1.59,-0.507 2.037,-2.211c1.047,-3.989 -0.9,-5.42 -2.507,-1.842c-1.116,2.485 -1.604,1.953 -5.233,-5.712c-2.201,-4.65 -3.939,-9.381 -3.862,-10.514c0.077,-1.133 -0.368,-2.095 -0.988,-2.137c-1.404,-0.095 -7.461,-20.883 -7.201,-24.716c0.105,-1.546 -0.569,-7.334 -1.498,-12.862c-2.122,-12.634 -3.702,-48.327 -2.326,-52.569c0.734,-2.262 0.497,-3.431 -0.817,-4.04c-1.146,-0.531 -1.742,-2.438 -1.568,-5.01c0.513,-7.56 -1.828,-5.829 -4.342,3.21c-10.523,37.838 -11.771,65.582 -4.97,110.497c1.755,11.593 3.091,23.325 2.969,26.069c-0.123,2.745 0.576,6.452 1.553,8.239c2.595,4.747 3.231,8.648 1.774,10.882c-1.094,1.677 -1.743,1.269 -4.416,-2.777c-3.604,-5.454 -5.253,-6.079 -5.51,-2.088c-0.173,2.672 2.058,8.29 16.717,42.114c6.472,14.934 16.638,51.207 14.995,53.503c-0.475,0.663 0.399,3.875 1.941,7.138c1.542,3.264 2.486,6.378 2.098,6.921c-0.389,0.542 0.029,3.148 0.929,5.791c1.909,5.611 0.291,16.263 -2.607,17.155c-1.339,0.412 -1.555,1.343 -0.849,3.661c1.072,3.52 0.048,5.137 -2.013,3.177c-0.936,-0.89 -2.258,-0.597 -4.119,0.915c-2.735,2.222 -2.745,2.213 -5.016,-4.238c-1.252,-3.556 -1.93,-7.214 -1.506,-8.128c0.424,-0.915 0.254,-2.034 -0.378,-2.486c-2.075,-1.485 -3.104,3.234 -1.968,9.026c1.258,6.419 0.841,7.381 -2.286,5.267c-1.548,-1.047 -1.662,-1.452 -0.391,-1.392c2.356,0.109 -3.583,-7.031 -8.85,-10.64c-3.906,-2.677 -3.932,-2.678 -4.1,-0.207c-0.092,1.368 0.787,2.926 1.955,3.461c2.511,1.151 5.661,4.482 4.14,4.378c-2.456,-0.166 -20.038,-14.814 -20.296,-16.909c-0.184,-1.496 0.286,-2.041 1.352,-1.569c0.899,0.399 1.478,1.28 1.288,1.96c-0.191,0.679 0.684,2.304 1.945,3.61c2.195,2.276 2.298,2.281 2.444,0.128c0.084,-1.236 -1.768,-4.383 -4.115,-6.994c-3.379,-3.758 -5.109,-4.73 -8.319,-4.672c-4.531,0.083 -5.323,-0.849 -11.679,-13.752c-2.819,-5.723 -3.682,-6.774 -3.279,-3.995l0.547,3.774l-3.529,-5.116c-4.653,-6.747 -14.649,-28.544 -16.036,-34.967l-1.097,-5.08l-0.589,6.871c-0.324,3.78 0.399,12.275 1.606,18.879c2.054,11.237 12.426,45.621 16.903,56.036c2.868,6.67 4.311,13.563 3.298,15.748c-0.56,1.208 0.129,2.494 1.924,3.589c3.837,2.341 3.764,2.154 1.964,5.031c-2.502,3.999 -1.024,9.403 3.552,12.991c2.246,1.762 5.578,5.602 7.405,8.534c3.201,5.139 3.246,5.502 1.25,10.095c-2.66,6.119 -2.8,7.843 -0.652,7.989c0.957,0.065 3.721,2.908 6.141,6.318c2.421,3.411 6.578,8.926 9.239,12.257c4.597,5.755 4.712,6.123 2.313,7.404c-1.388,0.742 -2.577,2.129 -2.642,3.083c-0.106,1.566 7.43,7.875 9.812,8.214c2.16,0.307 2.817,3.914 1.343,7.371c-1.419,3.326 -1.222,3.895 2.461,7.11c7.201,6.287 16.449,17.449 15.526,18.739c-0.497,0.694 -1.958,1.191 -3.247,1.103c-3.359,-0.227 -4.439,1.962 -2.782,5.637c0.789,1.749 6.603,8.988 12.92,16.085c6.317,7.098 13.822,16.987 16.679,21.976c4.993,8.721 5.178,9.453 4.778,18.962c-0.281,6.675 0.1,10.237 1.169,10.954c0.872,0.585 3.805,3.062 6.518,5.506c4.095,3.688 4.696,4.822 3.537,6.673c-3.165,5.059 -1.429,8.582 7.709,15.648c7.133,5.516 8.378,6.973 6.657,7.789c-1.165,0.552 -2.545,0.697 -3.067,0.323c-0.522,-0.374 -1.126,1.154 -1.342,3.396c-0.272,2.812 0.394,4.749 2.145,6.25c7.431,6.369 11.622,9.75 19.427,15.67c5.307,4.026 8.554,7.38 8.478,8.757c-0.2,3.602 -5.79,11.992 -8.309,12.471c-2.811,0.535 -4.396,4.663 -2.989,7.783c0.565,1.253 3.949,3.603 7.52,5.222c12.845,5.826 22.064,11.782 29.506,19.063c4.165,4.075 8.052,7.442 8.638,7.482c0.586,0.04 0.664,0.633 0.174,1.318c-0.491,0.685 -0.288,2.082 0.449,3.104c1.829,2.535 0.685,3.758 -6.67,7.137c-3.468,1.594 -6.605,3.8 -6.972,4.903c-0.875,2.625 -0.123,5.362 1.27,4.626c0.604,-0.319 3.101,0.988 5.549,2.903c2.448,1.916 5.871,3.897 7.608,4.403c8.375,2.442 11.989,4.772 25.377,16.356c16.806,14.542 17.976,15.542 28.643,24.477l8.064,6.755l-3.632,2.045c-1.997,1.125 -5.149,2.272 -7.004,2.55c-2.032,0.304 -3.737,1.57 -4.29,3.186c-1.399,4.086 -1.271,4.535 1.339,4.712c1.329,0.09 2.726,0.748 3.103,1.462c0.377,0.713 4.273,1.541 8.658,1.838c4.386,0.298 11.014,1.708 14.73,3.134c5.627,2.159 6.723,3.07 6.562,5.45c-0.138,2.028 -0.918,2.809 -2.685,2.689c-1.37,-0.093 -2.611,0.667 -2.756,1.69c-1.09,7.639 -1.089,7.64 12.571,12.834c2.101,0.799 5.648,2.835 7.881,4.526c4.592,3.474 23.293,14.525 33.829,19.99c5.803,3.01 6.927,4.117 6.562,6.462c-1.053,6.756 -0.486,8.031 4.464,10.045c2.679,1.09 4.841,2.416 4.806,2.946c-0.036,0.529 1.538,1.025 3.498,1.102c4.94,0.195 6.335,1.509 6.05,5.7c-0.193,2.854 0.573,4.051 3.677,5.748c2.157,1.178 5.872,2.442 8.256,2.808c3.929,0.604 4.275,0.984 3.702,4.064c-0.725,3.891 1.696,7.31 5.349,7.558c1.375,0.094 3.962,0.842 5.749,1.664c2.679,1.232 3.099,2.072 2.389,4.776c-1.311,4.998 -0.262,6.608 4.519,6.932c4.094,0.278 11.357,4.081 11.234,5.884c-0.031,0.453 -0.944,1.465 -2.029,2.248c-1.086,0.783 -2.05,2.549 -2.143,3.924c-0.157,2.312 0.382,2.474 7.2,2.168l7.369,-0.331l13.006,13.559c7.153,7.458 12.977,13.965 12.944,14.461c-0.034,0.496 1.797,3.397 4.068,6.446c4.596,6.171 11.023,10.863 11.203,8.182l0,-0.003Zm130.208,-777.274c3.023,1.878 3.951,5.857 2.073,8.88c-1.879,3.022 -5.858,3.951 -8.881,2.072c-3.022,-1.878 -3.951,-5.857 -2.072,-8.88c1.879,-3.022 5.858,-3.951 8.88,-2.072Zm-139.074,441.743c3.559,0 6.448,2.889 6.448,6.448c0,3.559 -2.889,6.448 -6.448,6.448c-3.558,0 -6.448,-2.889 -6.448,-6.448c0,-3.559 2.89,-6.448 6.448,-6.448Zm-229.617,45.019c3.559,-0 6.448,2.889 6.448,6.448c-0,3.559 -2.889,6.448 -6.448,6.448c-3.559,0 -6.448,-2.889 -6.448,-6.448c-0,-3.559 2.889,-6.448 6.448,-6.448Zm-51.609,-458.169c3.559,0 6.448,2.89 6.448,6.448c-0,3.559 -2.889,6.449 -6.448,6.449c-3.559,-0 -6.448,-2.89 -6.448,-6.449c-0,-3.558 2.889,-6.448 6.448,-6.448Z"/><clipPath id="_clip1"><path id="outline1" serif:id="outline" d="M449.136,1193.91c0.056,-0.879 -1.682,-5.062 -3.861,-9.301c-3.683,-7.163 -7.547,-19.053 -13.327,-41.009c-2.202,-8.362 -8.114,-25.436 -18.232,-52.653c-3.637,-9.783 -4.347,-13.473 -4.393,-22.822c-0.05,-10.278 -1.059,-13.836 -3.55,-12.521c-0.535,0.283 -0.393,-6.361 0.316,-14.764c1.247,-14.766 1.199,-15.326 -1.429,-16.698c-1.972,-1.03 -2.637,-2.449 -2.42,-5.169c0.427,-5.349 4.101,-16.588 6.972,-21.324c2.729,-4.501 1.793,-6.197 -3.642,-6.602c-2.419,-0.178 -2.713,-0.659 -1.821,-2.958c1.177,-3.031 3.323,-4.637 4.792,-3.585c0.523,0.375 0.996,0.035 1.049,-0.755c0.054,-0.789 -1.003,-1.804 -2.349,-2.256c-3.075,-1.031 -2.962,-2.697 0.489,-7.211c3.295,-4.31 3.823,-8.954 1.264,-11.105c-1.584,-1.333 -1.611,-2.376 -0.17,-6.573c0.942,-2.744 2.597,-5.627 3.677,-6.407c1.08,-0.779 2.039,-2.523 2.131,-3.875c0.483,-7.116 5.212,-15.913 11.405,-21.217c6.448,-5.522 9.967,-12.62 6.884,-13.885c-1.74,-0.715 3.265,-9.455 5.343,-9.329c1.243,0.07 3.456,-2.806 12.71,-16.538c2.478,-3.677 4.463,-5.951 4.41,-5.054c-0.053,0.897 0.488,1.323 1.202,0.946c0.714,-0.377 1.257,-0.092 1.208,0.634c-0.049,0.725 0.83,1.381 1.953,1.458c1.124,0.075 2.721,1.169 3.549,2.43c1.384,2.104 1.536,2.038 1.86,-0.812c0.325,-2.867 0.484,-2.76 2.073,1.392c2.246,5.87 0.672,46.984 -1.959,51.19c-2.654,4.241 -5.095,15.669 -5.569,26.071c-0.256,5.623 -1.001,9.846 -1.813,10.274c-0.759,0.401 -1.623,4.198 -1.921,8.439c-0.296,4.24 -1.56,11.019 -2.805,15.064c-2.66,8.641 -12.973,46.63 -14.843,54.676c-0.394,1.694 -1.195,4.033 -1.78,5.198c-0.81,1.612 -0.463,2.158 1.457,2.288c1.386,0.094 2.678,0.777 2.87,1.518c0.531,2.045 4.753,0.274 4.917,-2.062c0.198,-2.794 4.29,-8.304 10.187,-13.709c2.702,-2.477 6.405,-7.012 8.229,-10.078c1.825,-3.066 6.657,-8.241 10.739,-11.5c7.232,-5.775 9.179,-8.59 6.087,-8.8c-0.838,-0.057 1.339,-2.302 4.837,-4.99c4.638,-3.563 6.479,-5.866 6.8,-8.506c0.274,-2.261 2.456,-5.638 5.808,-8.991c6.566,-6.567 14.16,-15.046 14.216,-15.872c0.023,-0.335 -1.167,-0.871 -2.644,-1.191c-2.523,-0.547 -2.403,-0.826 1.993,-4.644c2.572,-2.235 7.746,-6.489 11.498,-9.455c4.843,-3.826 6.886,-6.321 7.04,-8.594c0.119,-1.761 -0.371,-3.243 -1.09,-3.291c-1.993,-0.136 0.214,-2.897 7.846,-9.816c5.072,-4.597 7.059,-7.349 7.574,-10.488c0.635,-3.87 1.455,-4.572 9.07,-7.767c8.9,-3.734 26.787,-17.126 28.099,-21.037c0.592,-1.768 -0.013,-2.574 -2.476,-3.298c-7.339,-2.156 -7.736,-2.415 -6.194,-4.036c1.076,-1.131 1.088,-1.709 0.042,-2.138c-0.907,-0.372 0.574,-3.421 4.027,-8.295c6.054,-8.544 6.196,-8.766 13.767,-21.533c2.943,-4.962 7.694,-12.112 10.558,-15.889c2.864,-3.777 4.66,-6.578 3.991,-6.225c-1.751,0.924 -1.303,-1.021 0.786,-3.417c0.983,-1.127 2.07,-1.724 2.416,-1.328c0.572,0.655 4.122,-3.192 7.143,-7.74c1.06,-1.597 0.922,-1.606 -1.246,-0.085c-2.313,1.624 -2.342,1.557 -0.572,-1.29c1.026,-1.651 5.082,-7.288 9.013,-12.527c14.19,-18.912 16.927,-22.924 28.146,-41.261c13.976,-22.842 24.11,-37.627 29.505,-43.046c6.658,-6.688 20.19,-27.46 23.029,-35.352c1.45,-4.03 3.907,-10.397 5.462,-14.147c3.363,-8.117 3.597,-9.865 0.905,-6.766c-1.868,2.15 -1.973,2.006 -1.681,-2.304c0.258,-3.806 -0.128,-4.628 -2.243,-4.771c-1.762,-0.12 -3.239,1.196 -4.761,4.241c-4.911,9.824 -28.612,32.028 -38.871,36.413c-9.432,4.033 -10.272,5.877 22.615,-49.624c14.858,-25.073 28.581,-44.39 38.424,-54.088c4.468,-4.402 8.101,-8.795 8.072,-9.762c-0.029,-0.967 0.362,-1.462 0.868,-1.1c0.506,0.363 4.195,-3.475 8.199,-8.529c4.003,-5.053 6.272,-8.483 5.042,-7.622c-1.326,0.928 -2.201,1.026 -2.147,0.241c0.049,-0.729 0.598,-1.593 1.22,-1.921c0.621,-0.329 1.56,-2.128 2.086,-4c0.525,-1.871 3.148,-6.259 5.828,-9.75c2.68,-3.491 4.888,-6.579 4.907,-6.862c0.02,-0.283 -1,-0.584 -2.264,-0.67c-1.265,-0.086 -4.678,2.076 -7.583,4.804c-2.906,2.727 -7.633,6.806 -10.505,9.064c-2.872,2.258 -7.522,6.447 -10.333,9.31c-2.811,2.862 -4.721,4.527 -4.244,3.699c0.477,-0.828 0.504,-1.53 0.059,-1.56c-1.292,-0.088 -5.85,5.08 -6.013,6.818c-0.082,0.872 -3.613,4.911 -7.846,8.975c-4.233,4.064 -10.562,10.518 -14.064,14.343c-3.503,3.824 -10.872,11.153 -16.376,16.285l-10.007,9.332l0.506,-8.317c0.752,-12.352 3.55,-20.351 8.37,-23.927c2.219,-1.646 3.029,-2.696 1.8,-2.333c-1.569,0.464 -2.217,0.021 -2.177,-1.487c0.049,-1.79 -0.147,-1.745 -1.181,0.272c-0.936,1.825 -1.228,1.926 -1.191,0.41c0.026,-1.105 2.36,-5.732 5.187,-10.284c10.829,-17.438 17.045,-29.035 19.667,-36.696c1.497,-4.372 4.082,-11.235 5.745,-15.252c1.663,-4.016 6.305,-15.245 10.316,-24.952c8.494,-20.557 17.456,-46.171 16.526,-47.236c-0.354,-0.406 -1.246,-0.42 -1.98,-0.032c-1.641,0.866 -15.051,20.384 -20.039,29.165c-2.006,3.532 -6.404,9.991 -9.773,14.353c-3.368,4.362 -11.103,14.913 -17.189,23.447c-13.873,19.455 -19.245,25.898 -20.716,24.844c-0.635,-0.454 -1.764,0.497 -2.508,2.115c-1.275,2.773 -5.113,5.022 -6.282,3.682c-0.294,-0.336 1.208,-4.893 3.339,-10.126c7.099,-17.436 10.223,-29.171 9.156,-34.39c-1.36,-6.655 3.324,-36.762 8.316,-53.451c1.278,-4.272 3.275,-13.146 4.437,-19.72c1.163,-6.574 3.295,-16.378 4.738,-21.786c1.443,-5.407 3.98,-22.41 5.638,-37.782c1.659,-15.373 3.171,-29.066 3.361,-30.429c1.615,-11.562 0.199,-47.078 -2.007,-50.37c-0.554,-0.825 -0.888,-1.974 -0.743,-2.553c0.145,-0.579 0.31,-3.02 0.368,-5.425c0.104,-4.361 0.099,-4.365 -1.782,-1.453c-1.037,1.606 -1.809,3.806 -1.716,4.889c0.094,1.083 -0.398,2.285 -1.092,2.67c-0.693,0.385 -2.099,5.616 -3.122,11.624c-2.237,13.13 -8.507,33.658 -15.12,49.501c-5.881,14.089 -17.678,35.087 -20.138,35.844c-0.984,0.303 -3.646,2.892 -5.913,5.752c-2.268,2.86 -4.675,5.163 -5.348,5.118c-0.673,-0.046 -3.077,1.76 -5.343,4.013c-2.266,2.252 -4.684,3.692 -5.374,3.198c-0.69,-0.494 -2.104,0.113 -3.144,1.35c-1.707,2.031 -1.801,1.79 -0.972,-2.494c0.999,-5.16 -0.512,-10.862 -2.92,-11.026c-0.832,-0.056 -3.327,-0.595 -5.544,-1.197c-2.788,-0.757 -3.798,-0.654 -3.276,0.334c0.981,1.859 -9.656,1.875 -15.435,0.023c-2.666,-0.854 -4.427,-0.91 -4.738,-0.153c-0.663,1.615 -7.185,-0.427 -12.926,-4.046c-2.749,-1.734 -3.989,-3.189 -3.111,-3.652c1.009,-0.533 0.834,-1.561 -0.569,-3.339c-1.657,-2.1 -1.68,-2.409 -0.129,-1.69c1.088,0.504 2.247,0.129 2.715,-0.881c0.643,-1.387 0.095,-1.62 -2.579,-1.096c-2.149,0.421 -3.505,1.563 -3.692,3.111c-0.483,4.001 -3.388,7.735 -5.321,6.839c-1.225,-0.568 -2.546,0.791 -4.32,4.446c-1.406,2.895 -2.445,6.017 -2.309,6.938c0.135,0.92 -0.486,2.567 -1.38,3.66c-0.894,1.093 0.107,0.363 2.224,-1.621c2.117,-1.984 4.973,-5.386 6.346,-7.56c1.373,-2.173 2.838,-3.561 3.254,-3.084c0.417,0.477 0.049,1.485 -0.817,2.241c-0.865,0.756 -1.635,2.278 -1.71,3.383c-0.075,1.105 -1.927,3.506 -4.116,5.336c-2.188,1.829 -4.023,3.964 -4.076,4.744c-0.053,0.78 -1.684,2.676 -3.626,4.213l-3.53,2.794l2.289,-2.939c3.035,-3.898 3.049,-5.737 0.025,-3.352c-1.332,1.05 -2.684,1.608 -3.005,1.241c-0.321,-0.368 -3.291,2.794 -6.6,7.026c-3.574,4.57 -6.442,7.207 -7.064,6.495c-1.564,-1.792 0.202,-6.01 6.139,-14.66c2.933,-4.274 8.37,-12.352 12.081,-17.95c3.71,-5.598 8.474,-11.911 10.586,-14.028c3.696,-3.706 5.896,-10.999 2.829,-9.379c-0.971,0.513 -1.099,-0.098 -0.394,-1.89c0.749,-1.902 0.143,-4.01 -2.155,-7.487c-1.758,-2.661 -2.963,-5.814 -2.677,-7.005c0.33,-1.375 -0.592,-2.678 -2.52,-3.565c-2.136,-0.982 -3.57,-3.285 -4.821,-7.745c-0.98,-3.491 -2.153,-6.152 -2.607,-5.912c-2.219,1.172 -7.928,-21.9 -7.009,-28.325c0.224,-1.568 -0.562,-3.351 -1.826,-4.143c-1.221,-0.764 -2.824,-3.281 -3.563,-5.595c-0.74,-2.313 -2.112,-5.241 -3.049,-6.507c-0.938,-1.266 -1.531,-4.114 -1.317,-6.329c0.25,-2.598 -2.035,-9.971 -6.441,-20.775c-3.756,-9.211 -7.471,-19.887 -8.255,-23.726c-0.785,-3.838 -2.38,-10.422 -3.545,-14.63c-1.165,-4.208 -3.332,-14.155 -4.815,-22.103c-2.969,-15.903 -5.69,-23.824 -8.074,-23.506c-0.855,0.114 -1.511,-0.44 -1.457,-1.232c0.053,-0.792 -1.077,-3.261 -2.513,-5.488c-4.603,-7.142 -8.885,-16.77 -10.665,-23.977c-0.952,-3.858 -1.796,-6.509 -1.875,-5.891c-0.079,0.617 -1.143,0.086 -2.366,-1.181c-2.392,-2.479 -4.765,-1.073 -3.146,1.864c0.492,0.894 0.828,4.154 0.747,7.246c-0.702,26.726 -0.891,53.95 -0.402,57.846c0.423,3.366 0.161,4.703 -0.909,4.631c-1.088,-0.075 -1.402,1.723 -1.133,6.492c0.204,3.627 0.281,12.182 0.17,19.012c-0.195,12.038 -0.606,13.745 -5.066,21.011c-0.812,1.321 -1.783,4.12 -2.16,6.219c-0.554,3.085 -0.106,4.128 2.339,5.449c2.491,1.346 2.946,2.461 2.577,6.323l-0.447,4.689l-0.908,-4.659c-0.499,-2.563 -1.734,-5.043 -2.744,-5.511c-1.554,-0.721 -1.768,0.129 -1.393,5.55c0.276,3.992 -0.287,8.456 -1.494,11.861c-1.454,4.102 -1.605,5.839 -0.606,6.983c1.423,1.63 0.987,15.025 -0.532,16.351c-0.501,0.437 -1.193,3.362 -1.539,6.5c-0.391,3.541 -0.185,5.089 0.543,4.082c1.275,-1.765 0.294,3.355 -3.11,16.23c-1.533,5.8 -2.135,6.96 -2.194,4.23c-0.138,-6.346 -2.929,11.414 -4.086,26.001c-1.259,15.874 -3.142,26.88 -4.438,25.952c-1.464,-1.048 -2.889,3.252 -1.576,4.756c0.66,0.756 1.094,2.803 0.965,4.549c-0.169,2.266 -0.51,2.668 -1.195,1.404c-0.811,-1.495 -1.084,-1.514 -1.751,-0.119c-0.562,1.173 -0.789,1.199 -0.783,0.089c0.004,-0.86 -0.758,-1.616 -1.692,-1.679c-2.088,-0.142 -4.502,-8.167 -5.841,-19.418c-0.554,-4.65 -1.431,-8.231 -1.95,-7.957c-1.231,0.651 -3.519,-16.259 -3.141,-23.217c0.302,-5.556 -1.417,-9.595 -3.595,-8.445c-1.407,0.743 -17.1,-3.262 -16.967,-4.331c0.047,-0.386 0.918,-1.656 1.933,-2.822c1.768,-2.029 2.029,-1.999 6.169,0.71c2.377,1.556 4.354,2.365 4.392,1.798c0.128,-1.883 -4.167,-5.461 -6.768,-5.637c-1.409,-0.096 -4.11,-1.12 -6.003,-2.277l-3.442,-2.102l4.366,0.2c3.579,0.164 3.93,-0.023 1.948,-1.039c-1.331,-0.682 -4.485,-1.419 -7.01,-1.639c-4.585,-0.4 -7.981,-3.069 -3.704,-2.913c1.242,0.044 0.343,-0.746 -1.997,-1.76c-2.34,-1.014 -4.075,-2.491 -3.856,-3.282c0.443,-1.602 -4.148,-4.939 -5.35,-3.889c-0.421,0.367 0.22,2.004 1.424,3.639l2.189,2.971l-2.713,-2.637c-2.118,-2.059 -2.955,-2.298 -3.818,-1.092c-0.848,1.184 -1.267,1.021 -1.796,-0.697c-0.389,-1.264 0,-2.606 0.892,-3.077c1.001,-0.529 0.038,-1.348 -2.622,-2.229c-3.237,-1.073 -4.209,-2.096 -4.227,-4.45c-0.015,-1.82 0.172,-2.157 0.461,-0.833c0.472,2.166 2.731,3.309 2.855,1.445c0.035,-0.514 -0.795,-3.754 -1.843,-7.2l-1.905,-6.266l-1.262,5.735c-0.694,3.154 -0.952,6.322 -0.573,7.04c0.79,1.495 -2.955,0.888 -5.398,-0.876c-0.995,-0.718 -2.026,-0.612 -2.66,0.274c-0.758,1.058 -1.205,0.895 -1.668,-0.608c-0.426,-1.385 -1.67,-1.938 -3.813,-1.698c-1.749,0.196 -3.145,-0.167 -3.102,-0.806c0.044,-0.64 -0.751,-1.22 -1.765,-1.289c-1.014,-0.068 -7.17,-2.717 -13.678,-5.885c-6.509,-3.168 -14.175,-6.525 -17.036,-7.46c-3.146,-1.029 -5.154,-2.42 -5.079,-3.521c0.145,-2.151 -1.909,-2.59 -2.732,-0.584c-0.416,1.015 -1.362,0.898 -3.488,-0.433c-2.733,-1.709 -2.761,-1.868 -0.451,-2.506c2.43,-0.672 2.432,-0.703 0.122,-2.214c-2.171,-1.419 -2.178,-1.583 -0.106,-2.224c1.23,-0.381 2.269,-1.175 2.309,-1.765c0.04,-0.591 -0.714,-0.831 -1.676,-0.535c-1.038,0.32 -1.951,-0.522 -2.245,-2.069c-0.273,-1.433 -1.169,-2.652 -1.992,-2.708c-0.852,-0.058 -1.227,0.769 -0.872,1.922c0.395,1.283 0.066,1.798 -0.9,1.407c-0.838,-0.34 -1.596,-2.008 -1.684,-3.708c-0.195,-3.752 -4.735,-7.743 -4.964,-4.364c-0.124,1.826 -0.481,1.741 -2.771,-0.657c-3.174,-3.324 -9.634,-7.275 -12.175,-7.447c-1.201,-0.081 -1.906,1.076 -2.014,3.305c-0.174,3.581 -4.55,17.512 -6.58,20.948c-2.751,4.657 -4.238,8.325 -5.143,12.68c-0.53,2.552 -1.898,5.456 -3.04,6.453c-1.142,0.997 -2.17,3.192 -2.285,4.877c-0.114,1.686 -1.167,4.986 -2.341,7.333c-1.173,2.347 -2.692,7.031 -3.375,10.409c-0.683,3.377 -1.479,5.87 -1.768,5.538c-0.29,-0.331 -0.559,-7.829 -0.598,-16.662c-0.04,-8.833 -0.187,-18.883 -0.327,-22.334c-0.17,-4.179 0.51,-7.892 2.037,-11.123l2.292,-4.85l-0.993,4.938c-0.97,4.829 -0.947,4.872 1.061,1.949c1.129,-1.644 2.14,-5.251 2.247,-8.017c0.107,-2.765 0.923,-6.192 1.813,-7.615c2.691,-4.3 2.273,-8.523 -1.184,-11.98c-6.607,-6.606 -8.493,-10.124 -10.348,-19.297c-1.046,-5.176 -2.58,-10.019 -3.408,-10.764c-0.828,-0.744 -2.002,-3.184 -2.609,-5.421c-0.881,-3.245 -0.786,-3.919 0.473,-3.336c1.159,0.538 1.069,-1.394 -0.342,-7.292c-1.056,-4.413 -2.555,-10.883 -3.333,-14.376c-0.777,-3.494 -2.158,-8.334 -3.069,-10.756c-2.033,-5.407 -4.061,-16.042 -4.965,-26.034c-0.374,-4.131 -1.194,-8.1 -1.822,-8.821c-0.629,-0.72 -0.873,-6.387 -0.543,-12.593c0.463,-8.693 0.305,-10.298 -0.687,-6.991c-1.132,3.771 -1.191,3.539 -0.488,-1.91c0.44,-3.411 0.614,-14.38 0.386,-24.374c-1.135,-49.861 -0.273,-79.02 2.468,-83.4c2.052,-3.28 2.769,-13.847 0.948,-13.971c-0.96,-0.065 -0.973,-2.233 -0.041,-7.025c1.624,-8.354 -0.219,-8.231 -3.129,0.208c-1.108,3.212 -2.91,7.368 -4.005,9.235c-2.253,3.842 -5.238,15.904 -9.954,40.216c-1.779,9.17 -5.441,25.251 -8.137,35.736c-2.697,10.484 -5.194,20.732 -5.549,22.773c-0.531,3.051 -0.843,2.423 -1.757,-3.539c-0.611,-3.986 -1.549,-7.562 -2.085,-7.946c-2.085,-1.493 -3.803,17.44 -2.929,32.298c0.962,16.375 0.547,26.024 -1.448,33.687c-1.267,4.863 -1.327,4.739 -5.32,-10.997c-2.221,-8.754 -4.772,-19.5 -5.669,-23.881c-0.896,-4.381 -1.902,-7.727 -2.235,-7.437c-1.205,1.052 1.341,33.322 4.625,58.624c3.128,24.098 3.241,26.82 1.642,39.528c-0.945,7.506 -3.083,29.322 -4.752,48.479c-1.669,19.157 -3.726,36.889 -4.571,39.406c-0.846,2.516 -1.914,11.594 -2.374,20.172c-1.239,23.097 -1.381,24.449 -3.195,30.454c-1.345,4.451 -1.34,5.733 0.028,6.633c2.249,1.481 1.831,7.257 -0.515,7.098c-2.528,-0.171 -3.808,2.052 -2.346,4.078c0.678,0.939 0.839,2.052 0.357,2.472c-0.481,0.42 -0.361,0.799 0.267,0.842c0.628,0.043 0.883,4.857 0.567,10.699c-0.526,9.703 -0.701,10.327 -2.055,7.225c-0.813,-1.868 -1.391,-4.694 -1.283,-6.279c0.107,-1.585 -0.614,-3.81 -1.604,-4.943c-1.299,-1.488 -1.494,-3.353 -0.703,-6.707c0.742,-3.141 0.67,-4.116 -0.219,-3.01c-0.724,0.899 -1.868,1.24 -2.543,0.757c-0.675,-0.483 -2.599,-0.46 -4.277,0.05c-2.22,0.677 -3.844,2.869 -5.964,8.051c-1.602,3.917 -3.271,7.379 -3.709,7.694c-1.016,0.73 -4.011,5.572 -4.081,6.597c-0.029,0.427 0.487,0.493 1.147,0.144c2.765,-1.46 -7.627,16.691 -14.105,24.637c-1.289,1.581 -1.351,1.577 -0.559,-0.038c0.49,-0.999 -0.308,-0.631 -1.774,0.818c-1.465,1.45 -3.6,2.572 -4.743,2.494c-1.675,-0.113 -1.966,0.617 -1.496,3.761c0.472,3.154 0.038,4.232 -2.259,5.619c-1.971,1.191 -2.691,2.558 -2.348,4.463c0.601,3.335 -4.215,10.413 -5.252,7.72c-0.367,-0.953 -0.503,-0.373 -0.303,1.289c0.274,2.267 0.034,2.641 -0.963,1.498c-3.277,-3.754 -14.621,-1.102 -14.933,3.49c-0.075,1.116 0.969,3.378 2.32,5.028c2.426,2.96 2.049,6.853 -0.645,6.67c-0.747,-0.051 -0.974,-0.629 -0.504,-1.286c0.47,-0.656 -0.257,-1.268 -1.614,-1.36c-1.358,-0.093 -4.075,-2.008 -6.038,-4.257c-1.963,-2.248 -3.289,-3.176 -2.946,-2.062c1.378,4.475 -2.815,0.184 -5.984,-6.123c-7.529,-14.987 -9.596,-19.582 -8.434,-18.75c0.677,0.484 1.59,-0.507 2.037,-2.211c1.047,-3.989 -0.9,-5.42 -2.507,-1.842c-1.116,2.485 -1.604,1.953 -5.233,-5.712c-2.201,-4.65 -3.939,-9.381 -3.862,-10.514c0.077,-1.133 -0.368,-2.095 -0.988,-2.137c-1.404,-0.095 -7.461,-20.883 -7.201,-24.716c0.105,-1.546 -0.569,-7.334 -1.498,-12.862c-2.122,-12.634 -3.702,-48.327 -2.326,-52.569c0.734,-2.262 0.497,-3.431 -0.817,-4.04c-1.146,-0.531 -1.742,-2.438 -1.568,-5.01c0.513,-7.56 -1.828,-5.829 -4.342,3.21c-10.523,37.838 -11.771,65.582 -4.97,110.497c1.755,11.593 3.091,23.325 2.969,26.069c-0.123,2.745 0.576,6.452 1.553,8.239c2.595,4.747 3.231,8.648 1.774,10.882c-1.094,1.677 -1.743,1.269 -4.416,-2.777c-3.604,-5.454 -5.253,-6.079 -5.51,-2.088c-0.173,2.672 2.058,8.29 16.717,42.114c6.472,14.934 16.638,51.207 14.995,53.503c-0.475,0.663 0.399,3.875 1.941,7.138c1.542,3.264 2.486,6.378 2.098,6.921c-0.389,0.542 0.029,3.148 0.929,5.791c1.909,5.611 0.291,16.263 -2.607,17.155c-1.339,0.412 -1.555,1.343 -0.849,3.661c1.072,3.52 0.048,5.137 -2.013,3.177c-0.936,-0.89 -2.258,-0.597 -4.119,0.915c-2.735,2.222 -2.745,2.213 -5.016,-4.238c-1.252,-3.556 -1.93,-7.214 -1.506,-8.128c0.424,-0.915 0.254,-2.034 -0.378,-2.486c-2.075,-1.485 -3.104,3.234 -1.968,9.026c1.258,6.419 0.841,7.381 -2.286,5.267c-1.548,-1.047 -1.662,-1.452 -0.391,-1.392c2.356,0.109 -3.583,-7.031 -8.85,-10.64c-3.906,-2.677 -3.932,-2.678 -4.1,-0.207c-0.092,1.368 0.787,2.926 1.955,3.461c2.511,1.151 5.661,4.482 4.14,4.378c-2.456,-0.166 -20.038,-14.814 -20.296,-16.909c-0.184,-1.496 0.286,-2.041 1.352,-1.569c0.899,0.399 1.478,1.28 1.288,1.96c-0.191,0.679 0.684,2.304 1.945,3.61c2.195,2.276 2.298,2.281 2.444,0.128c0.084,-1.236 -1.768,-4.383 -4.115,-6.994c-3.379,-3.758 -5.109,-4.73 -8.319,-4.672c-4.531,0.083 -5.323,-0.849 -11.679,-13.752c-2.819,-5.723 -3.682,-6.774 -3.279,-3.995l0.547,3.774l-3.529,-5.116c-4.653,-6.747 -14.649,-28.544 -16.036,-34.967l-1.097,-5.08l-0.589,6.871c-0.324,3.78 0.399,12.275 1.606,18.879c2.054,11.237 12.426,45.621 16.903,56.036c2.868,6.67 4.311,13.563 3.298,15.748c-0.56,1.208 0.129,2.494 1.924,3.589c3.837,2.341 3.764,2.154 1.964,5.031c-2.502,3.999 -1.024,9.403 3.552,12.991c2.246,1.762 5.578,5.602 7.405,8.534c3.201,5.139 3.246,5.502 1.25,10.095c-2.66,6.119 -2.8,7.843 -0.652,7.989c0.957,0.065 3.721,2.908 6.141,6.318c2.421,3.411 6.578,8.926 9.239,12.257c4.597,5.755 4.712,6.123 2.313,7.404c-1.388,0.742 -2.577,2.129 -2.642,3.083c-0.106,1.566 7.43,7.875 9.812,8.214c2.16,0.307 2.817,3.914 1.343,7.371c-1.419,3.326 -1.222,3.895 2.461,7.11c7.201,6.287 16.449,17.449 15.526,18.739c-0.497,0.694 -1.958,1.191 -3.247,1.103c-3.359,-0.227 -4.439,1.962 -2.782,5.637c0.789,1.749 6.603,8.988 12.92,16.085c6.317,7.098 13.822,16.987 16.679,21.976c4.993,8.721 5.178,9.453 4.778,18.962c-0.281,6.675 0.1,10.237 1.169,10.954c0.872,0.585 3.805,3.062 6.518,5.506c4.095,3.688 4.696,4.822 3.537,6.673c-3.165,5.059 -1.429,8.582 7.709,15.648c7.133,5.516 8.378,6.973 6.657,7.789c-1.165,0.552 -2.545,0.697 -3.067,0.323c-0.522,-0.374 -1.126,1.154 -1.342,3.396c-0.272,2.812 0.394,4.749 2.145,6.25c7.431,6.369 11.622,9.75 19.427,15.67c5.307,4.026 8.554,7.38 8.478,8.757c-0.2,3.602 -5.79,11.992 -8.309,12.471c-2.811,0.535 -4.396,4.663 -2.989,7.783c0.565,1.253 3.949,3.603 7.52,5.222c12.845,5.826 22.064,11.782 29.506,19.063c4.165,4.075 8.052,7.442 8.638,7.482c0.586,0.04 0.664,0.633 0.174,1.318c-0.491,0.685 -0.288,2.082 0.449,3.104c1.829,2.535 0.685,3.758 -6.67,7.137c-3.468,1.594 -6.605,3.8 -6.972,4.903c-0.875,2.625 -0.123,5.362 1.27,4.626c0.604,-0.319 3.101,0.988 5.549,2.903c2.448,1.916 5.871,3.897 7.608,4.403c8.375,2.442 11.989,4.772 25.377,16.356c16.806,14.542 17.976,15.542 28.643,24.477l8.064,6.755l-3.632,2.045c-1.997,1.125 -5.149,2.272 -7.004,2.55c-2.032,0.304 -3.737,1.57 -4.29,3.186c-1.399,4.086 -1.271,4.535 1.339,4.712c1.329,0.09 2.726,0.748 3.103,1.462c0.377,0.713 4.273,1.541 8.658,1.838c4.386,0.298 11.014,1.708 14.73,3.134c5.627,2.159 6.723,3.07 6.562,5.45c-0.138,2.028 -0.918,2.809 -2.685,2.689c-1.37,-0.093 -2.611,0.667 -2.756,1.69c-1.09,7.639 -1.089,7.64 12.571,12.834c2.101,0.799 5.648,2.835 7.881,4.526c4.592,3.474 23.293,14.525 33.829,19.99c5.803,3.01 6.927,4.117 6.562,6.462c-1.053,6.756 -0.486,8.031 4.464,10.045c2.679,1.09 4.841,2.416 4.806,2.946c-0.036,0.529 1.538,1.025 3.498,1.102c4.94,0.195 6.335,1.509 6.05,5.7c-0.193,2.854 0.573,4.051 3.677,5.748c2.157,1.178 5.872,2.442 8.256,2.808c3.929,0.604 4.275,0.984 3.702,4.064c-0.725,3.891 1.696,7.31 5.349,7.558c1.375,0.094 3.962,0.842 5.749,1.664c2.679,1.232 3.099,2.072 2.389,4.776c-1.311,4.998 -0.262,6.608 4.519,6.932c4.094,0.278 11.357,4.081 11.234,5.884c-0.031,0.453 -0.944,1.465 -2.029,2.248c-1.086,0.783 -2.05,2.549 -2.143,3.924c-0.157,2.312 0.382,2.474 7.2,2.168l7.369,-0.331l13.006,13.559c7.153,7.458 12.977,13.965 12.944,14.461c-0.034,0.496 1.797,3.397 4.068,6.446c4.596,6.171 11.023,10.863 11.203,8.182l0,-0.003Zm130.208,-777.274c3.023,1.878 3.951,5.857 2.073,8.88c-1.879,3.022 -5.858,3.951 -8.881,2.072c-3.022,-1.878 -3.951,-5.857 -2.072,-8.88c1.879,-3.022 5.858,-3.951 8.88,-2.072Zm-139.074,441.743c3.559,0 6.448,2.889 6.448,6.448c0,3.559 -2.889,6.448 -6.448,6.448c-3.558,0 -6.448,-2.889 -6.448,-6.448c0,-3.559 2.89,-6.448 6.448,-6.448Zm-229.617,45.019c3.559,-0 6.448,2.889 6.448,6.448c-0,3.559 -2.889,6.448 -6.448,6.448c-3.559,0 -6.448,-2.889 -6.448,-6.448c-0,-3.559 2.889,-6.448 6.448,-6.448Zm-51.609,-458.169c3.559,0 6.448,2.89 6.448,6.448c-0,3.559 -2.889,6.449 -6.448,6.449c-3.559,-0 -6.448,-2.89 -6.448,-6.449c-0,-3.558 2.889,-6.448 6.448,-6.448Z"/></clipPath><g clip-path="url(#_clip1)"><g><g><path d="M594.151,403.051l-17.136,22.86c-0.962,1.283 -2.785,1.544 -4.069,0.582l-0.346,-0.26c-1.283,-0.962 -1.544,-2.785 -0.582,-4.068l17.136,-22.86c0.962,-1.283 2.785,-1.544 4.069,-0.582l0.346,0.26c1.284,0.962 1.544,2.785 0.582,4.068Z" style="fill:#4d3202;"/><path d="M213.945,910.239l-17.136,22.859c-0.962,1.284 -2.785,1.544 -4.069,0.582l-0.346,-0.259c-1.284,-0.962 -1.544,-2.786 -0.582,-4.069l17.136,-22.859c0.962,-1.284 2.785,-1.545 4.069,-0.583l0.346,0.26c1.283,0.962 1.544,2.785 0.582,4.069Z" style="fill:#4d3202;"/></g></g><g><path d="M143.218,433.121l15.6,22.954c0.875,1.289 2.633,1.624 3.922,0.749l0.347,-0.237c1.289,-0.876 1.624,-2.633 0.749,-3.922l-15.6,-22.954c-0.876,-1.289 -2.634,-1.624 -3.922,-0.748l-0.348,0.236c-1.289,0.876 -1.624,2.633 -0.748,3.922Z" style="fill:#4d3202;"/><path d="M436.089,864.069l15.6,22.954c0.876,1.289 2.634,1.624 3.922,0.748l0.348,-0.236c1.289,-0.876 1.624,-2.633 0.748,-3.922l-15.6,-22.955c-0.875,-1.288 -2.633,-1.624 -3.922,-0.748l-0.347,0.236c-1.289,0.876 -1.624,2.634 -0.749,3.923Z" style="fill:#4d3202;"/></g></g></g></svg>