<?xml version="1.0" encoding="UTF-8" standalone="no"?><!DOCTYPE svg PUBLIC "-//W3C//DTD SVG 1.1//EN" "http://www.w3.org/Graphics/SVG/1.1/DTD/svg11.dtd"><svg width="100%" height="100%" viewBox="0 0 405 1125" version="1.1" xmlns="http://www.w3.org/2000/svg" xmlns:xlink="http://www.w3.org/1999/xlink" xml:space="preserve" xmlns:serif="http://www.serif.com/" style="fill-rule:evenodd;clip-rule:evenodd;stroke-linejoin:round;stroke-miterlimit:2;"><g><path id="sword" d="M211.739,1122.29c10.979,-24.125 17.405,-47.241 24.702,-88.856c3.677,-20.965 8.149,-43.027 9.388,-46.309c0.607,-1.607 2.024,-6.653 3.149,-11.212c1.125,-4.56 4.61,-15.631 7.744,-24.604c10.51,-30.088 14.984,-49.936 19.123,-84.84c3.986,-33.608 8.954,-55.866 16.428,-73.596c6.217,-14.748 14.94,-32.417 19.273,-39.039c2.293,-3.503 3.932,-6.641 3.642,-6.973c-0.29,-0.332 -4.161,0.767 -8.602,2.443c-13.849,5.227 -17.731,5.679 -19.225,2.242c-0.727,-1.674 -1.55,-14.68 -1.829,-28.901c-0.706,-36.072 4.535,-85.818 17.16,-162.867c6.609,-40.328 6.769,-40.852 12.401,-40.47c2.577,0.175 8.977,3.316 14.221,6.979c5.244,3.663 9.886,6.153 10.315,5.534c0.429,-0.62 0.347,-5.111 -0.202,-9.983c-1.849,-16.686 -1.724,-45.824 0.264,-61.509c5.701,-44.989 22.879,-84.465 50.879,-116.92c7.254,-8.409 13.21,-15.598 13.235,-15.976c0.08,-1.182 -16.07,-10.345 -29.807,-16.911c-19.443,-9.293 -44.672,-17.412 -69.102,-22.237c-21.884,-4.323 -20.523,11.687 -10.972,-129.102l8.306,-122.444l10.334,-9.815c5.684,-5.399 10.414,-10.986 10.511,-12.416c0.523,-7.713 -28.787,-15.433 -51.669,-13.607c-23.246,1.855 -27.72,8.736 -14.855,22.853l7.385,8.104l-0.248,29.706c-0.136,16.338 -0.198,40.416 -0.138,53.504c0.158,34.385 -4.967,102.363 -9.423,124.992c-7.307,37.1 -9.592,43.688 -28.307,81.581c-18.321,37.094 -19.824,40.573 -32.644,75.573c-2.678,7.311 -8.928,6.043 -8.371,-2.567c0.49,-7.557 0.07,-19.121 -2.213,-60.997c-3.14,-57.603 -9.499,-97.914 -18.2,-115.371c-2.28,-4.575 -4.455,-8.34 -4.832,-8.365c-0.378,-0.026 -7.943,4.108 -16.81,9.187c-14.014,8.027 -51.253,24.156 -76.639,33.194c-10.674,3.8 -39.536,13.702 -44.095,15.129c-1.975,0.617 -7.445,2.527 -12.153,4.242c-8.482,3.09 -8.567,3.197 -9.112,11.423c-1.227,18.537 6.109,40.619 39.581,119.137c16.806,39.423 19.62,46.792 30.322,79.405c3.732,11.372 7.508,22.703 8.392,25.18c9.378,26.287 17.169,56.249 24.895,95.737c1.534,7.839 3.219,17.841 3.746,22.228c0.526,4.387 2.366,17.564 4.087,29.283c1.722,11.719 3.528,26.08 4.014,31.914c0.486,5.834 1.668,17.78 2.627,26.547c0.959,8.767 2.11,20.711 2.557,26.542c0.975,12.724 3.394,46.456 4.561,63.594c2.977,43.725 12.542,114.281 18.64,137.502c0.647,2.461 2.538,10.5 4.203,17.864c5.5,24.32 13.493,53.456 18.673,68.068c15.633,44.088 32.199,82.774 40.407,94.357c2.503,3.532 3.349,3.896 4.283,1.843Z" style="fill:#800000;fill-rule:nonzero;stroke:#000;stroke-width:1.25px;"/><g transform="matrix(1.65327e-15,-1,1,1.65327e-15,-4924.92,-1695.73)"><g transform="matrix(87.1029,0,0,87.1029,-2111.36,5150.55)"></g><text x="-2486.26px" y="5150.55px" style="font-family:'SoulCalibuR';font-size:87.103px;stroke:#000;stroke-width:0.42px;">Doriana Othman</text></g><path id="eye" d="M191.043,891.414c7.514,-10.109 10.432,-10.147 13.553,-0.179c0.849,2.714 6.527,11.868 12.617,20.344c6.089,8.476 12.123,18.263 13.408,21.749c3.093,8.389 5.528,45.354 3.582,54.36c-2.436,11.273 -11.81,32.508 -17.77,40.252l-5.457,7.092l-6.034,-4.169c-10.593,-7.319 -23.948,-24.314 -30.272,-38.524c-4.747,-10.667 -6.25,-16.607 -7.003,-27.674c-1.559,-22.915 7.829,-52.335 23.376,-73.251Zm4.635,56.496c-10.65,6.761 -8.078,22.099 4.072,24.287c2.791,0.503 5.285,-0.434 9.272,-3.479c4.784,-3.654 5.409,-4.845 5.08,-9.685c-0.365,-5.38 -5.869,-12.787 -9.328,-12.553c-0.763,0.052 -2.27,-0.146 -3.347,-0.441c-1.078,-0.294 -3.665,0.548 -5.749,1.871Zm12.485,5.062c3.904,3.079 3.764,6.998 -0.405,11.423c-4.062,4.311 -6.905,4.84 -11.133,2.071c-2.143,-1.402 -2.953,-3.38 -2.955,-7.21c-0.002,-2.902 0.295,-5.84 0.658,-6.529c1.165,-2.205 10.948,-2.032 13.835,0.245Z"/><g transform="matrix(1.65327e-15,-1,1,1.65327e-15,-1886.79,286.5)"><g transform="matrix(27.548,0,0,27.548,-419.468,2142.73)"></g><text x="-554.02px" y="2142.73px" style="font-family:'TempusSansITC', 'Tempus Sans ITC';font-size:27.548px;stroke:#000;stroke-width:0.04px;">ux engineer</text></g><path id="outline" d="M211.739,1122.29c10.979,-24.125 17.405,-47.241 24.702,-88.856c3.677,-20.965 8.149,-43.027 9.388,-46.309c0.607,-1.607 2.024,-6.653 3.149,-11.212c1.125,-4.56 4.61,-15.631 7.744,-24.604c10.51,-30.088 14.984,-49.936 19.123,-84.84c3.986,-33.608 8.954,-55.866 16.428,-73.596c6.217,-14.748 14.94,-32.417 19.273,-39.039c2.293,-3.503 3.932,-6.641 3.642,-6.973c-0.29,-0.332 -4.161,0.767 -8.602,2.443c-13.849,5.227 -17.731,5.679 -19.225,2.242c-0.727,-1.674 -1.55,-14.68 -1.829,-28.901c-0.706,-36.072 4.535,-85.818 17.16,-162.867c6.609,-40.328 6.769,-40.852 12.401,-40.47c2.577,0.175 8.977,3.316 14.221,6.979c5.244,3.663 9.886,6.153 10.315,5.534c0.429,-0.62 0.347,-5.111 -0.202,-9.983c-1.849,-16.686 -1.724,-45.824 0.264,-61.509c5.701,-44.989 22.879,-84.465 50.879,-116.92c7.254,-8.409 13.21,-15.598 13.235,-15.976c0.08,-1.182 -16.07,-10.345 -29.807,-16.911c-19.443,-9.293 -44.672,-17.412 -69.102,-22.237c-21.884,-4.323 -20.523,11.687 -10.972,-129.102l8.306,-122.444l10.334,-9.815c5.684,-5.399 10.414,-10.986 10.511,-12.416c0.523,-7.713 -28.787,-15.433 -51.669,-13.607c-23.246,1.855 -27.72,8.736 -14.855,22.853l7.385,8.104l-0.248,29.706c-0.136,16.338 -0.198,40.416 -0.138,53.504c0.158,34.385 -4.967,102.363 -9.423,124.992c-7.307,37.1 -9.592,43.688 -28.307,81.581c-18.321,37.094 -19.824,40.573 -32.644,75.573c-2.678,7.311 -8.928,6.043 -8.371,-2.567c0.49,-7.557 0.07,-19.121 -2.213,-60.997c-3.14,-57.603 -9.499,-97.914 -18.2,-115.371c-2.28,-4.575 -4.455,-8.34 -4.832,-8.365c-0.378,-0.026 -7.943,4.108 -16.81,9.187c-14.014,8.027 -51.253,24.156 -76.639,33.194c-10.674,3.8 -39.536,13.702 -44.095,15.129c-1.975,0.617 -7.445,2.527 -12.153,4.242c-8.482,3.09 -8.567,3.197 -9.112,11.423c-1.227,18.537 6.109,40.619 39.581,119.137c16.806,39.423 19.62,46.792 30.322,79.405c3.732,11.372 7.508,22.703 8.392,25.18c9.378,26.287 17.169,56.249 24.895,95.737c1.534,7.839 3.219,17.841 3.746,22.228c0.526,4.387 2.366,17.564 4.087,29.283c1.722,11.719 3.528,26.08 4.014,31.914c0.486,5.834 1.668,17.78 2.627,26.547c0.959,8.767 2.11,20.711 2.557,26.542c0.975,12.724 3.394,46.456 4.561,63.594c2.977,43.725 12.542,114.281 18.64,137.502c0.647,2.461 2.538,10.5 4.203,17.864c5.5,24.32 13.493,53.456 18.673,68.068c15.633,44.088 32.199,82.774 40.407,94.357c2.503,3.532 3.349,3.896 4.283,1.843Z" style="fill:#800000;fill-opacity:0;fill-rule:nonzero;stroke:#000;stroke-width:1.25px;"/></g></svg>